PathFileType	4	(X/Y/Z)	OpenSim_static_markers.trc
DataRate	CameraRate	NumFrames	NumMarkers	Units	OrigDataRate	OrigDataStartFrame	OrigNumFrames
100	100	6	41	m	100	1	6
Frame#	Time	APEX	L1MT	L2MT	L5MT	LASI	LCAL	LFBH	LGTR	LLEP	LLML	LMEP	LMML	LPS1	LPS2	LSH1	LSH2	LSH3	LTH1	LTH2	LTH3	LTTB	R1MT	R2MT	R5MT	RASI	RCAL	RFBH	RGTR	RLEP	RLML	RMEP	RMML	RPS1	RPS2	RSH1	RSH2	RSH3	RTH1	RTH2	RTH3	RTTB
				X1	Y1	Z1	X2	Y2	Z2	X3	Y3	Z3	X4	Y4	Z4	X5	Y5	Z5	X6	Y6	Z6	X7	Y7	Z7	X8	Y8	Z8	X9	Y9	Z9	X10	Y10	Z10	X11	Y11	Z11	X12	Y12	Z12	X13	Y13	Z13	X14	Y14	Z14	X15	Y15	Z15	X16	Y16	Z16	X17	Y17	Z17	X18	Y18	Z18	X19	Y19	Z19	X20	Y20	Z20	X21	Y21	Z21	X22	Y22	Z22	X23	Y23	Z23	X24	Y24	Z24	X25	Y25	Z25	X26	Y26	Z26	X27	Y27	Z27	X28	Y28	Z28	X29	Y29	Z29	X30	Y30	Z30	X31	Y31	Z31	X32	Y32	Z32	X33	Y33	Z33	X34	Y34	Z34	X35	Y35	Z35	X36	Y36	Z36	X37	Y37	Z37	X38	Y38	Z38	X39	Y39	Z39	X40	Y40	Z40	X41		Y41	Z41	

1	0	0.71576900	1.86541000	-0.44497200	0.80073900	0.07004900	-0.54392900	0.81857500	0.08178700	-0.59554500	0.75564600	0.04032900	-0.66049500	0.77527400	1.07615800	-0.61255700	0.57215000	0.05894800	-0.56023800	0.70869800	0.49152500	-0.63793700	0.64911400	1.01083600	-0.66615500	0.71644300	0.54617100	-0.63511700	0.63683100	0.11049000	-0.60803600	0.71941200	0.53343300	-0.50534200	0.66736400	0.11764200	-0.52235000	0.57661200	1.14077500	-0.51599500	0.56285600	1.07073400	-0.52071600	0.64403500	0.47384600	-0.63661100	0.63310900	0.36978300	-0.64293800	0.69043600	0.36539800	-0.65598600	0.68640900	0.84116000	-0.69158000	0.71276700	0.74425700	-0.66726700	0.76704700	0.76190900	-0.65086300	0.76196000	0.45994400	-0.57998900	0.79791200	0.06382600	-0.45620600	0.81043800	0.08006500	-0.41021800	0.74378200	0.03879400	-0.33888100	0.77706600	1.06941000	-0.36549500	0.56623900	0.07448600	-0.44378100	0.68016100	0.48631800	-0.34443300	0.66442800	0.99722100	-0.30979400	0.71211700	0.54763600	-0.35550900	0.62546400	0.11166000	-0.39197200	0.68487100	0.54225300	-0.47493600	0.66450500	0.11570100	-0.47338400	0.57956500	1.14176400	-0.46570200	0.56574500	1.06472800	-0.45359400	0.70939600	0.45140300	-0.35364100	0.70047200	0.34902200	-0.35616300	0.64928300	0.35259400	-0.32517100	0.70795400	0.86119400	-0.29087700	0.71108600	0.75773200	-0.30707300	0.65343500	0.75780500	-0.32081800	0.72614200	0.45956700	-0.40942700
2	0.01000000	0.71654900	1.86534500	-0.44600800	0.80066900	0.07009900	-0.54396200	0.81845800	0.08191100	-0.59557800	0.75566700	0.04025100	-0.66059300	0.77622500	1.07573700	-0.61347000	0.57207200	0.05880300	-0.56028600	0.70912500	0.49112200	-0.63845200	0.65030900	1.01069400	-0.66720700	0.71675800	0.54629000	-0.63608500	0.63657700	0.11021800	-0.60810800	0.71981300	0.53344800	-0.50583000	0.66727700	0.11773800	-0.52251100	0.57765000	1.14071900	-0.51706600	0.56379300	1.07062400	-0.52169400	0.64454900	0.47366300	-0.63747200	0.63351600	0.36959300	-0.64356600	0.69089600	0.36507400	-0.65629700	0.68697900	0.84084100	-0.69242300	0.71339600	0.74401400	-0.66796700	0.76711300	0.76123900	-0.65173300	0.76235500	0.45976900	-0.58039500	0.79789600	0.06378200	-0.45629800	0.81038600	0.08031400	-0.41053900	0.74376600	0.03883800	-0.33892700	0.77776200	1.06928400	-0.36627300	0.56624100	0.07448900	-0.44384800	0.68316700	0.48602500	-0.34514400	0.66562200	0.99723600	-0.31077100	0.71504400	0.54735000	-0.35663300	0.62567100	0.11176800	-0.39191500	0.68809300	0.54217200	-0.47608600	0.66472100	0.11553400	-0.47353600	0.58048300	1.14178300	-0.46650200	0.56674100	1.06463600	-0.45461500	0.71223700	0.45090900	-0.35465100	0.70271900	0.34852700	-0.35708700	0.65154300	0.35240000	-0.32571800	0.70934300	0.86104900	-0.29166400	0.71276200	0.75751400	-0.30805100	0.65525900	0.75740700	-0.32156500	0.72873700	0.45904700	-0.41037500
3	0.02000000	0.71719000	1.86530900	-0.44692200	0.80061200	0.07018400	-0.54398700	0.81832300	0.08200100	-0.59565200	0.75568400	0.04011800	-0.66074800	0.77724600	1.07565900	-0.61423800	0.57196300	0.05867700	-0.56030700	0.70974900	0.49094200	-0.63882700	0.65090000	1.01041900	-0.66798700	0.71768300	0.54554200	-0.63612800	0.63652400	0.11020900	-0.60818600	0.72041400	0.53348900	-0.50627000	0.66720600	0.11765600	-0.52271400	0.57869700	1.14044900	-0.51806600	0.56468200	1.07058700	-0.52295900	0.64515200	0.47348600	-0.63792200	0.63385900	0.36938800	-0.64385800	0.69123300	0.36480700	-0.65665000	0.68776000	0.84067200	-0.69312400	0.71410900	0.74391600	-0.66872100	0.76693300	0.76021000	-0.65222100	0.76284500	0.45953600	-0.58070300	0.79789000	0.06378600	-0.45640000	0.81035600	0.08032600	-0.41072600	0.74374700	0.03888100	-0.33897000	0.77861400	1.06921500	-0.36715300	0.56626400	0.07449100	-0.44390000	0.68643300	0.48575800	-0.34608400	0.66667900	0.99706600	-0.31182200	0.71791200	0.54690400	-0.35755900	0.62574200	0.11169400	-0.39241000	0.69084400	0.54166000	-0.47684000	0.66487600	0.11542700	-0.47369200	0.58143400	1.14153200	-0.46757000	0.56758900	1.06456000	-0.45555900	0.71538100	0.45043700	-0.35567500	0.70502700	0.34794200	-0.35802700	0.65421600	0.35235200	-0.32637600	0.71076300	0.86075900	-0.29248400	0.71454300	0.75737100	-0.30867200	0.65682100	0.75712300	-0.32195300	0.73170600	0.45858000	-0.41145100
4	0.03000000	0.71799500	1.86524600	-0.44817600	0.80055100	0.07027200	-0.54398200	0.81818800	0.08212500	-0.59553700	0.75566900	0.04010200	-0.66082400	0.77807100	1.07550000	-0.61494400	0.57189200	0.05852800	-0.56034800	0.71033400	0.49064700	-0.63926100	0.65191600	1.01016000	-0.66881000	0.71882700	0.54469200	-0.63597400	0.63643700	0.11024000	-0.60829700	0.72132600	0.53346700	-0.50676700	0.66698700	0.11736100	-0.52280100	0.57973900	1.14019900	-0.51906700	0.56576700	1.07035500	-0.52383300	0.64569000	0.47322700	-0.63797100	0.63421400	0.36920100	-0.64381400	0.69149600	0.36450100	-0.65691100	0.68860000	0.84049900	-0.69390000	0.71485400	0.74378200	-0.66934700	0.76829100	0.76035800	-0.65312600	0.76355400	0.45921400	-0.58110700	0.79788200	0.06373500	-0.45648400	0.81020400	0.08024100	-0.41088600	0.74373600	0.03893300	-0.33898000	0.77964700	1.06909400	-0.36805500	0.56628100	0.07449300	-0.44393300	0.68968300	0.48546100	-0.34699400	0.66751000	0.99711300	-0.31271900	0.72129100	0.54649400	-0.35849300	0.62582000	0.11185700	-0.39269000	0.69444700	0.54160200	-0.47776200	0.66506200	0.11536700	-0.47387800	0.58237900	1.14141200	-0.46860800	0.56851400	1.06440600	-0.45659700	0.71859400	0.44978400	-0.35676300	0.70750500	0.34745400	-0.35886200	0.65678000	0.35229300	-0.32689300	0.71218000	0.86043500	-0.29333800	0.71633500	0.75714400	-0.30938300	0.65878800	0.75660100	-0.32262300	0.73440000	0.45779700	-0.41265600
5	0.04000000	0.71866900	1.86510300	-0.44929800	0.80043700	0.07039600	-0.54397800	0.81808400	0.08218500	-0.59554600	0.75563100	0.04012000	-0.66081100	0.77900400	1.07511500	-0.61604400	0.57182000	0.05834800	-0.56044600	0.71112500	0.49036800	-0.63982900	0.65324400	1.00974300	-0.66947800	0.71964000	0.54427000	-0.63640600	0.63629100	0.11019300	-0.60835100	0.72274000	0.53359200	-0.50701100	0.66693400	0.11722500	-0.52301000	0.58078500	1.13986800	-0.51999500	0.56676100	1.07016300	-0.52456900	0.64631900	0.47310600	-0.63792000	0.63455800	0.36906000	-0.64359500	0.69171300	0.36413800	-0.65706600	0.68977100	0.84006700	-0.69466600	0.71601400	0.74345900	-0.66981500	0.76973700	0.76040500	-0.65380200	0.76440900	0.45882500	-0.58160500	0.79780400	0.06356300	-0.45656500	0.81025700	0.08040600	-0.41113900	0.74381300	0.03937400	-0.33853100	0.78039400	1.06888000	-0.36894600	0.56630700	0.07447400	-0.44394200	0.69314300	0.48507700	-0.34777900	0.66829700	0.99711000	-0.31336000	0.72492300	0.54613800	-0.35950000	0.62599900	0.11194400	-0.39292400	0.69814000	0.54114100	-0.47858100	0.66516600	0.11530700	-0.47408500	0.58323200	1.14117000	-0.46968100	0.56945200	1.06413800	-0.45742400	0.72192900	0.44919400	-0.35775600	0.71007200	0.34708700	-0.35971500	0.65955800	0.35220600	-0.32767100	0.71323000	0.86026600	-0.29419400	0.71811400	0.75661800	-0.31028100	0.66091700	0.75587400	-0.32343900	0.73754100	0.45715200	-0.41364000
6	0.05000000	0.71932200	1.86497500	-0.45061500	0.80034400	0.07046400	-0.54393700	0.81800900	0.08224400	-0.59554300	0.75559000	0.04011700	-0.66077000	0.77972300	1.07492600	-0.61676800	0.57174700	0.05822700	-0.56047800	0.71198400	0.48997000	-0.64031700	0.65413800	1.00954400	-0.67013600	0.72087700	0.54416400	-0.63679700	0.63616600	0.11012700	-0.60839300	0.72404900	0.53343700	-0.50740600	0.66687200	0.11718800	-0.52307200	0.58163300	1.13968100	-0.52100500	0.56753900	1.06987000	-0.52551800	0.64717200	0.47292500	-0.63782400	0.63501000	0.36894000	-0.64333800	0.69203200	0.36375900	-0.65727700	0.69090400	0.83966800	-0.69537500	0.71719800	0.74313300	-0.67058800	0.77132400	0.76031200	-0.65442400	0.76542900	0.45837400	-0.58207000	0.79778600	0.06353000	-0.45663600	0.81024000	0.08043200	-0.41129200	0.74382600	0.03976900	-0.33803800	0.78105600	1.06864200	-0.36992900	0.56628500	0.07449800	-0.44401000	0.69693000	0.48461000	-0.34854900	0.66916300	0.99692100	-0.31407600	0.72859800	0.54568900	-0.36071900	0.62612800	0.11206900	-0.39313800	0.70258800	0.54091100	-0.47981900	0.66525700	0.11523000	-0.47432900	0.58411200	1.14095800	-0.47066600	0.57024900	1.06403100	-0.45838200	0.72549900	0.44859000	-0.35881300	0.71264800	0.34642900	-0.36048100	0.66236900	0.35215000	-0.32829500	0.71377300	0.86051400	-0.29439000	0.72038200	0.75601300	-0.31118600	0.66319300	0.75539700	-0.32432500	0.74107800	0.45646400	-0.41465700
